<svg width="130.85mm" height="111.49mm" version="1.1" viewBox="0 0 130.85265 111.48694" xmlns="http://www.w3.org/2000/svg"><defs><filter id="i" x="-.010759" y="-.013565" width="1.0215" height="1.0271" color-interpolation-filters="sRGB"><feGaussianBlur stdDeviation="0.16486856"/></filter><filter id="h" x="-.048" y="-.048" width="1.096" height="1.096" color-interpolation-filters="sRGB"><feGaussianBlur stdDeviation="0.064000001"/></filter><filter id="g" x="-.019849" y="-.030346" width="1.0397" height="1.0607" color-interpolation-filters="sRGB"><feGaussianBlur stdDeviation="0.45742285"/></filter><filter id="f" x="-.013732" y="-.095142" width="1.0275" height="1.1903" color-interpolation-filters="sRGB"><feGaussianBlur stdDeviation="0.14684392"/></filter><filter id="e" x="-.032649" y="-.018974" width="1.0653" height="1.0379" color-interpolation-filters="sRGB"><feGaussianBlur stdDeviation="0.39952081"/></filter><filter id="d" x="-.037718" y="-.14661" width="1.0754" height="1.2932" color-interpolation-filters="sRGB"><feGaussianBlur stdDeviation="1.2283869"/></filter><filter id="c" x="-.047841" y="-.080446" width="1.0957" height="1.1609" color-interpolation-filters="sRGB"><feGaussianBlur stdDeviation="1.3923697"/></filter><filter id="b" x="-.016527" y="-.04381" width="1.0331" height="1.0876" color-interpolation-filters="sRGB"><feGaussianBlur stdDeviation="0.21393249"/></filter><filter id="a" x="-.016527" y="-.04381" width="1.0331" height="1.0876" color-interpolation-filters="sRGB"><feGaussianBlur stdDeviation="0.21393198"/></filter></defs><g transform="translate(-13.798 -75.484)"><g transform="translate(6 -6)"><path d="m26.007 88.582h47.9c2.0521 0 3.7042 1.6521 3.7042 3.7042v28.768c0 2.0521-1.6521 3.7042-3.7042 3.7042h-47.9c-2.0521 0-3.7042-1.6521-3.7042-3.7042v-28.768c0-2.0521 1.6521-3.7042 3.7042-3.7042z" fill-opacity=".13146" fill-rule="evenodd" filter="url(#g)" style="paint-order:stroke markers fill"/><path d="m24.419 87.524h47.9c2.0521 0 3.7042 1.6521 3.7042 3.7042v28.768c0 2.0521-1.6521 3.7042-3.7042 3.7042h-47.9c-2.0521 0-3.7042-1.652-3.7042-3.7042v-28.768c0-2.0521 1.6521-3.7042 3.7042-3.7042z" fill="#f5f5f5" style="paint-order:stroke markers fill"/><path d="m34.131 91.253h36.778v29.17h-36.778z" fill="#fff" filter="url(#i)" stroke="#000" stroke-linecap="square" stroke-linejoin="bevel" stroke-opacity=".69953" stroke-width=".052917" style="paint-order:stroke markers fill"/><path d="m24.871 91.154h9.7896v29.369h-9.7896z" fill="#ff7300" fill-rule="evenodd" style="paint-order:stroke markers fill"/><g transform="translate(-14.023 9.2604)" fill="#fff" fill-rule="evenodd"><path d="m40.212 88.976h6.4385v0.7h-6.4385zm0-1.7232h5v0.7h-5zm0-1.9809h6.4385v0.7h-6.4385z" style="paint-order:stroke markers fill"/><path d="m40.212 104.85h2.3374v0.7h-2.3374zm0-2.1167h4.4541v0.7h-4.4541zm0-2.6458h6.4385v0.7h-6.4385zm0-2.2524h5v0.7h-5zm0-2.1167h5v0.7h-5zm0-1.981h6.4385v0.7h-6.4385z" fill-opacity=".49765" style="paint-order:stroke markers fill"/></g><path d="m22.82 101.34c0.18322 0 0.33073 0.1475 0.33073 0.33073v6.2177c0 0.18323-0.1475 0.33073-0.33073 0.33073s-0.33073-0.1475-0.33073-0.33073v-6.2177c0-0.18323 0.1475-0.33073 0.33073-0.33073z" fill-opacity=".39437" fill-rule="evenodd" style="paint-order:stroke markers fill"/><path d="m75.101 105.89a1.6 1.6 0 0 1 -1.6 1.6 1.6 1.6 0 0 1 -1.6 -1.6 1.6 1.6 0 0 1 1.6 -1.6 1.6 1.6 0 0 1 1.6 1.6z" fill="none" filter="url(#h)" stroke="#000" stroke-linecap="square" stroke-linejoin="bevel" stroke-opacity=".69953" stroke-width=".079375" style="paint-order:stroke markers fill"/><g transform="translate(-14.023 9.2604)" fill-rule="evenodd"><path d="m50.998 83.217h2.5135c0.54967 0 0.99219 0.44252 0.99219 0.99219v1.9844c0 0.54967-0.44252 0.99219-0.99219 0.99219h-2.5135c-0.54967 0-0.99219-0.44252-0.99219-0.99219v-1.9844c0-0.54967 0.44252-0.99219 0.99219-0.99219z" fill="#e30000" style="paint-order:stroke markers fill"/><path d="m50.998 89.038h2.5135c0.54967 0 0.99219 0.44252 0.99219 0.99219v1.9844c0 0.54967-0.44252 0.99219-0.99219 0.99219h-2.5135c-0.54967 0-0.99219-0.44252-0.99219-0.99219v-1.9844c0-0.54967 0.44252-0.99219 0.99219-0.99219z" fill="#e300df" style="paint-order:stroke markers fill"/><path d="m50.998 94.858h2.5135c0.54967 0 0.99219 0.44252 0.99219 0.99219v1.9844c0 0.54967-0.44252 0.99219-0.99219 0.99219h-2.5135c-0.54967 0-0.99219-0.44252-0.99219-0.99219v-1.9844c0-0.54967 0.44252-0.99219 0.99219-0.99219z" fill="#1a00df" style="paint-order:stroke markers fill"/><g><path d="m56.092 98.298h20.77v0.79375h-20.77zm0-1.5875h14.817v0.79375h-14.817zm0-1.5875h8.3344v0.79375h-8.3344zm0-2.6458h20.637v0.79375h-20.637zm0-1.5875h8.8635v0.79375h-8.8635zm0-1.5875h12.303v0.79375h-12.303zm0-2.6458h12.303v0.79375h-12.303zm0-1.5875h15.346v0.79375h-15.346zm0-1.5875h6.0854v0.79375h-6.0854z" fill-opacity=".23474" style="paint-order:stroke markers fill"/><path d="m57.547 100.94h17.859c0.80618 0 1.4552 0.64902 1.4552 1.4552v5.5562c0 0.80619-0.64902 1.4552-1.4552 1.4552h-17.859c-0.80618 0-1.4552-0.64902-1.4552-1.4552v-5.5562c0-0.80618 0.64902-1.4552 1.4552-1.4552z" fill-opacity=".15023" style="paint-order:stroke markers fill"/></g></g><path d="m15.296 120.61h16.564c0.82978 0 1.4978 1.4932 1.4978 3.348v26.96c0 1.8548-0.66802 3.348-1.4978 3.348h-16.564c-0.82978 0-1.4978-1.4932-1.4978-3.348v-26.96c0-1.8548 0.66802-3.348 1.4978-3.348z" fill-rule="evenodd" style="paint-order:stroke markers fill"/><path transform="matrix(.666 0 0 .666 8.4235 51.975)" d="m11.377 104.12h24.871c1.2459 0 2.249 2.2421 2.249 5.0271v40.481c0 2.785-1.003 5.0271-2.249 5.0271h-24.871c-1.2459 0-2.249-2.2421-2.249-5.0271v-40.481c0-2.785 1.003-5.0271 2.249-5.0271z" fill-opacity=".20188" fill-rule="evenodd" filter="url(#e)" style="paint-order:stroke markers fill"/><path d="m17.137 122.63a0.2417 0.2417 0 0 1 -0.2417 0.2417 0.2417 0.2417 0 0 1 -0.2417 -0.2417 0.2417 0.2417 0 0 1 0.2417 -0.2417 0.2417 0.2417 0 0 1 0.2417 0.2417zm4.3646-0.20318h3.9977c0.07021 0 0.12673 0.0533 0.12673 0.11955 0 0.0662-0.05652 0.11954-0.12673 0.11954h-3.9977c-0.07021 0-0.12673-0.0533-0.12673-0.11954 0-0.0662 0.05652-0.11955 0.12673-0.11955z" fill="#fff" fill-opacity=".68545" fill-rule="evenodd" style="paint-order:stroke markers fill"/><path d="m17.164 151.44h0.34751c0.1978 0 0.35703 0.15924 0.35703 0.35703v0.34752c0 0.19779-0.15924 0.35703-0.35703 0.35703h-0.34751c-0.1978 0-0.35703-0.15924-0.35703-0.35703v-0.34752c0-0.19779 0.15924-0.35703 0.35703-0.35703zm12.962 0.89725-0.03831 0.093-0.9515-0.48756-0.07183-0.0759 0.9528-0.48557 0.11013-0.0171zm-5.9974-0.38829a0.52955 0.52955 0 0 1 -0.52955 0.52955 0.52955 0.52955 0 0 1 -0.52955 -0.52955 0.52955 0.52955 0 0 1 0.52955 -0.52955 0.52955 0.52955 0 0 1 0.52955 0.52955z" fill="none" stroke="#fff" stroke-linecap="square" stroke-linejoin="bevel" stroke-opacity=".69953" stroke-width=".04998" style="paint-order:stroke markers fill"/><path transform="matrix(.666 0 0 .666 8.4235 51.975)" d="m9.9219 108.88h25.665v3.7042h-25.665z" fill="#010000" fill-opacity=".16432" fill-rule="evenodd" filter="url(#f)" style="paint-order:stroke markers fill"/><g fill-rule="evenodd"><path d="m15.031 124.31h17.093v25.551h-17.093z" fill="#fff" style="paint-order:stroke markers fill"/><path d="m15.031 124.23h17.093v2.467h-17.093z" fill="#ff7300" style="paint-order:stroke markers fill"/><g><path d="m16.309 127.57h1.674c0.36608 0 0.6608 0.29472 0.6608 0.6608v1.3216c0 0.36608-0.29472 0.6608-0.6608 0.6608h-1.674c-0.36608 0-0.6608-0.29472-0.6608-0.6608v-1.3216c0-0.36608 0.29472-0.6608 0.6608-0.6608z" fill="#54ce00" style="paint-order:stroke markers fill"/><path d="m16.309 131.45h1.674c0.36608 0 0.6608 0.29472 0.6608 0.6608v1.3216c0 0.36608-0.29472 0.6608-0.6608 0.6608h-1.674c-0.36608 0-0.6608-0.29472-0.6608-0.6608v-1.3216c0-0.36608 0.29472-0.6608 0.6608-0.6608z" fill="#540600" style="paint-order:stroke markers fill"/><path d="m16.309 135.33h1.674c0.36608 0 0.6608 0.29472 0.6608 0.6608v1.3216c0 0.36608-0.29472 0.6608-0.6608 0.6608h-1.674c-0.36608 0-0.6608-0.29472-0.6608-0.6608v-1.3216c0-0.36608 0.29472-0.6608 0.6608-0.6608z" fill="#5406cd" style="paint-order:stroke markers fill"/><path d="m16.309 139.2h1.674c0.36608 0 0.6608 0.29472 0.6608 0.6608v1.3216c0 0.36608-0.29472 0.6608-0.6608 0.6608h-1.674c-0.36608 0-0.6608-0.29472-0.6608-0.6608v-1.3216c0-0.36608 0.29472-0.6608 0.6608-0.6608z" fill="#fa06cd" style="paint-order:stroke markers fill"/><path d="m16.309 143.08h1.674c0.36608 0 0.6608 0.29472 0.6608 0.6608v1.3216c0 0.36608-0.29472 0.6608-0.6608 0.6608h-1.674c-0.36608 0-0.6608-0.29472-0.6608-0.6608v-1.3216c0-0.36608 0.29472-0.6608 0.6608-0.6608z" fill="#54ce00" style="paint-order:stroke markers fill"/><path d="m16.309 146.96h1.674c0.36608 0 0.6608 0.29472 0.6608 0.6608v1.3216c0 0.36608-0.29472 0.6608-0.6608 0.6608h-1.674c-0.36608 0-0.6608-0.29472-0.6608-0.6608v-1.3216c0-0.36608 0.29472-0.6608 0.6608-0.6608z" fill="#5406cd" style="paint-order:stroke markers fill"/></g><path d="m19.349 148.94h8.1939v0.52864h-8.1939zm0-1.0573h10.22v0.52864h-10.22zm0-1.0573h4.0529v0.52864h-4.0529zm0.08811-1.63h8.1939v0.52864h-8.1939zm0-1.0572h10.22v0.52863h-10.22zm0-1.0573h4.0529v0.52864h-4.0529zm-0.04405-1.7184h8.1939v0.52864h-8.1939zm0-1.0573h10.22v0.52863h-10.22zm0-1.0573h4.0529v0.52864h-4.0529zm-0.08811-1.7621h8.1939v0.52864h-8.1939zm0-1.0573h10.22v0.52864h-10.22zm0-1.0572h4.0529v0.52863h-4.0529zm-0.08811-1.9383h8.1939v0.52864h-8.1939zm0-1.0573h10.22v0.52863h-10.22zm0-1.0572h4.0529v0.52863h-4.0529zm-0.13216-1.6741h8.1939v0.52864h-8.1939zm0-1.0573h10.22v0.52864h-10.22zm0-1.0572h4.0529v0.52864h-4.0529z" fill-opacity=".23474" style="paint-order:stroke markers fill"/></g><g stroke="#d7e8e1"><path d="m27.372 154.51h1.7438v2.8022h-1.7438z" fill="#fff" fill-opacity=".25822" fill-rule="evenodd" stroke-linecap="square" stroke-linejoin="bevel" stroke-width=".47639" style="paint-order:stroke markers fill"/><path d="m49.953 175.21c-6.4835 0.21086-12.974 0.21086-19.457 0-0.3818-0.0124-0.77516-0.0282-1.1225-0.18709-0.25748-0.11779-0.47732-0.31065-0.64418-0.5394-0.16686-0.22875-0.28213-0.49262-0.35643-0.76584-0.1486-0.54645-0.1351-1.122-0.12192-1.6882 0.12488-5.3622 0.12488-10.727 0-16.09" fill="none" stroke-width=".765"/><path d="m48.907 173.92h3.6452l-0.71875 2.6133h-3.6452z" fill="#fff" fill-opacity=".25822" fill-rule="evenodd" stroke-linecap="square" stroke-linejoin="bevel" stroke-width=".66515" style="paint-order:stroke markers fill"/></g><path d="m59.531 119.73h62.971c1.9055 0 3.4396 1.534 3.4396 3.4396v34.66c0 1.9055-1.5341 3.4396-3.4396 3.4396h-62.971c-1.9055 0-3.4396-1.5341-3.4396-3.4396v-34.66c0-1.9055 1.5341-3.4396 3.4396-3.4396z" fill-opacity=".47887" fill-rule="evenodd" filter="url(#c)" style="paint-order:stroke markers fill"/><path d="m59.728 118.54h62.576c2.0148 0 3.6368 1.622 3.6368 3.6368v36.647c0 2.0148-1.622 3.6368-3.6368 3.6368h-62.576c-2.0148 0-3.6368-1.622-3.6368-3.6368v-36.647c0-2.0148 1.622-3.6368 3.6368-3.6368z" fill="#c9d2e9" fill-rule="evenodd" style="paint-order:stroke markers fill"/><path d="m61.119 124.23h59.267v33.602h-59.267z" fill-opacity=".83256" fill-rule="evenodd" stroke="#000" stroke-linecap="square" stroke-linejoin="bevel" stroke-opacity=".41784" stroke-width=".1" style="paint-order:stroke markers fill"/><path d="m57.71 163.91h65.556c1.1894 0 1.9082 0.77407 2.147 1.6651l4.2333 15.798c0.23876 0.89101 0 2.6458-6.3803 2.6458h-65.556c-6.1158 0-6.3405-1.7512-6.1158-2.6458l3.9688-15.798c0.22475-0.89466 0.95756-1.6651 2.147-1.6651z" fill-opacity=".22066" fill-rule="evenodd" filter="url(#d)" stroke="#000" stroke-linecap="square" stroke-linejoin="bevel" stroke-opacity=".50235" stroke-width=".155" style="paint-order:stroke markers fill"/><path d="m57.375 163.38h66.222c1.2015 0 1.9276 0.77407 2.1688 1.6651l4.2763 15.798c0.24118 0.89101 0 2.6458-6.4451 2.6458h-66.222c-6.1779 0-6.4049-1.7512-6.1779-2.6458l4.0091-15.798c0.22704-0.89466 0.96729-1.6651 2.1688-1.6651z" fill="#c9d2e9" fill-rule="evenodd" style="paint-order:stroke markers fill"/><path d="m57.71 161.8h65.556c1.1894 0 1.9082 0.77407 2.147 1.6651l4.2333 15.798c0.23876 0.89101 0 2.6458-6.3803 2.6458h-65.556c-6.1158 0-6.3405-1.7512-6.1158-2.6458l3.9688-15.798c0.22475-0.89466 0.95756-1.6651 2.147-1.6651z" fill="#dce6ff" fill-rule="evenodd" style="paint-order:stroke markers fill"/><path d="m81.245 174.76h17.623c0.31975 0 0.51298 0.19354 0.57717 0.41632l1.138 3.95c0.0642 0.22278 0 0.66154-1.7152 0.66154h-17.623c-1.6441 0-1.7045-0.43785-1.6441-0.66154l1.0669-3.95c0.06042-0.22369 0.25742-0.41632 0.57717-0.41632zm-18.633-11.906h55.792c1.0123 0 1.7041 0.39115 1.8272 0.8983l2.3867 9.8326c0.12311 0.50715 1.2161 0.11778-4.2139 0.11778h-55.792c-5.2049 0-4.1984 0.38825-4.0823-0.11778l2.2551-9.8326c0.11606-0.50604 0.81494-0.8983 1.8272-0.8983z" fill-opacity=".088372" fill-rule="evenodd" style="paint-order:stroke markers fill"/><path d="m61.066 124.32h8.7932v33.489h-8.7932z" fill="#120736" fill-opacity=".9108" fill-rule="evenodd" style="paint-order:stroke markers fill"/><path d="m91.174 121.79a0.56127 0.56127 0 0 1 -0.56127 0.56126 0.56127 0.56127 0 0 1 -0.56127 -0.56126 0.56127 0.56127 0 0 1 0.56127 -0.56127 0.56127 0.56127 0 0 1 0.56127 0.56127z" fill-opacity=".25352" fill-rule="evenodd" style="paint-order:stroke markers fill"/><path d="m61.684 141h1.2032c0.0554 0 0.1 0.0446 0.1 0.1v1.2032c0 0.0554-0.0446 0.1-0.1 0.1h-1.2032c-0.0554 0-0.1-0.0446-0.1-0.1v-1.2032c0-0.0554 0.0446-0.1 0.1-0.1zm0.03702-1.7674h3.6658c0.15567 0 0.281 0.12517 0.281 0.28064s-0.12533 0.28064-0.281 0.28064h-3.6658c-0.15567 0-0.281-0.12517-0.281-0.28064s0.12533-0.28064 0.281-0.28064zm-3.61e-4 -1.5875h6.7535c0.15547 0 0.28064 0.12517 0.28064 0.28064 0 0.15548-0.12516 0.28064-0.28064 0.28064h-6.7535c-0.15547 0-0.28064-0.12516-0.28064-0.28064 0-0.15547 0.12516-0.28064 0.28064-0.28064zm3.61e-4 -1.5875h4.5077c0.15567 0 0.281 0.12517 0.281 0.28064 0 0.15548-0.12533 0.28064-0.281 0.28064h-4.5077c-0.15567 0-0.281-0.12516-0.281-0.28064 0-0.15547 0.12533-0.28064 0.281-0.28064zm1.5147-2.8218a0.8419 0.74835 0 0 1 -0.8419 0.74835 0.8419 0.74835 0 0 1 -0.8419 -0.74835 0.8419 0.74835 0 0 1 0.8419 -0.74836 0.8419 0.74835 0 0 1 0.8419 0.74836zm-1.5147-2.4698h3.6658c0.15567 0 0.281 0.12516 0.281 0.28064 0 0.15547-0.12533 0.28064-0.281 0.28064h-3.6658c-0.15567 0-0.281-0.12517-0.281-0.28064 0-0.15548 0.12533-0.28064 0.281-0.28064zm0-1.5875h5.069c0.15567 0 0.281 0.12517 0.281 0.28064 0 0.15548-0.12533 0.28064-0.281 0.28064h-5.069c-0.15567 0-0.281-0.12516-0.281-0.28064 0-0.15547 0.12533-0.28064 0.281-0.28064z" fill="#fff" fill-opacity=".3662" fill-rule="evenodd" style="paint-order:stroke markers fill"/><path d="m60.991 156.68h59.389v1.2161h-59.389z" fill="#4987ff" fill-rule="evenodd" style="paint-order:stroke markers fill"/><path d="m61.714 157.17h8.1359v0.33073h-8.1359z" fill="#fff" fill-opacity=".46479" fill-rule="evenodd" style="paint-order:stroke markers fill"/><path d="m61.021 124h59.497v4.4451h-59.497z" fill="#fff" fill-rule="evenodd" style="paint-order:stroke markers fill"/><path d="m117.29 125.69-0.0211-0.0211 1.0971-1.0971 0.0211 0.0211zm-0.0211-1.0971 0.0211-0.0211 1.0971 1.0971-0.0211 0.0211z" fill="none" stroke="#000" stroke-linecap="square" stroke-linejoin="bevel" stroke-opacity=".41784" stroke-width=".11563" style="paint-order:stroke markers fill"/><path d="m112.85 124.82h0.95151v0.80284h-0.95151zm0.29735-0.0446v-0.23789h0.95151v0.80284h-0.23788" fill="none" stroke="#000" stroke-linecap="square" stroke-linejoin="bevel" stroke-opacity=".41784" stroke-width=".11472" style="paint-order:stroke markers fill"/><path d="m108.26 124.88h1.8309v0.2h-1.8309z" fill="#959595" fill-rule="evenodd" style="paint-order:stroke markers fill"/><path d="m86.543 144.4h5.3557c0.16339 0 0.29492 0.13153 0.29492 0.29492v0.10409c0 0.16339-0.13153 0.29492-0.29492 0.29492h-5.3557c-0.16339 0-0.29492-0.13153-0.29492-0.29492v-0.10409c0-0.16339 0.13153-0.29492 0.29492-0.29492zm-4.5811-5e-3h2.5142c0.16575 0 0.29919 0.13344 0.29919 0.29919v0.10559c0 0.16575-0.13344 0.29919-0.29919 0.29919h-2.5142c-0.16575 0-0.29919-0.13344-0.29919-0.29919v-0.10559c0-0.16575 0.13344-0.29919 0.29919-0.29919zm-6.0014 3e-3h4.0533c0.16437 0 0.2967 0.13233 0.2967 0.29671v0.10471c0 0.16438-0.13233 0.29671-0.2967 0.29671h-4.0533c-0.16437 0-0.2967-0.13233-0.2967-0.29671v-0.10471c0-0.16438 0.13233-0.29671 0.2967-0.29671zm1.2636-2.2112h4.0533c0.16437 0 0.2967 0.13233 0.2967 0.2967v0.10472c0 0.16437-0.13233 0.2967-0.2967 0.2967h-4.0533c-0.16437 0-0.2967-0.13233-0.2967-0.2967v-0.10472c0-0.16437 0.13233-0.2967 0.2967-0.2967zm4.1065-1.8953h4.0533c0.16437 0 0.2967 0.13233 0.2967 0.2967v0.10472c0 0.16437-0.13233 0.2967-0.2967 0.2967h-4.0533c-0.16437 0-0.2967-0.13233-0.2967-0.2967v-0.10472c0-0.16437 0.13233-0.2967 0.2967-0.2967zm-7.2654 0h4.0533c0.16437 0 0.2967 0.13233 0.2967 0.2967v0.10472c0 0.16437-0.13233 0.2967-0.2967 0.2967h-4.0533c-0.16437 0-0.2967-0.13233-0.2967-0.2967v-0.10472c0-0.16437 0.13233-0.2967 0.2967-0.2967zm13.898-1.8987h2.2775c0.16599 0 0.29962 0.13363 0.29962 0.29962v0.10575c0 0.16599-0.13363 0.29963-0.29962 0.29963h-2.2775c-0.16599 0-0.29962-0.13364-0.29962-0.29963v-0.10575c0-0.16599 0.13363-0.29962 0.29962-0.29962zm-8.5673 8e-3h6.7766c0.16243 0 0.2932 0.13077 0.2932 0.2932v0.10348c0 0.16243-0.13077 0.2932-0.2932 0.2932h-6.7766c-0.16243 0-0.2932-0.13077-0.2932-0.2932v-0.10348c0-0.16243 0.13077-0.2932 0.2932-0.2932zm7.6202-2.2147h4.4085c0.16409 0 0.29619 0.1321 0.29619 0.2962v0.10453c0 0.1641-0.1321 0.2962-0.29619 0.2962h-4.4085c-0.16409 0-0.29619-0.1321-0.29619-0.2962v-0.10453c0-0.1641 0.1321-0.2962 0.29619-0.2962zm-5.686-5.9e-4h4.0533c0.16437 0 0.2967 0.13233 0.2967 0.2967v0.10472c0 0.16437-0.13233 0.2967-0.2967 0.2967h-4.0533c-0.16437 0-0.2967-0.13233-0.2967-0.2967v-0.10472c0-0.16437 0.13233-0.2967 0.2967-0.2967zm-4.4227-2e-3h2.9088c0.16537 0 0.2985 0.13313 0.2985 0.2985v0.10535c0 0.16537-0.13313 0.2985-0.2985 0.2985h-2.9088c-0.16537 0-0.2985-0.13313-0.2985-0.2985v-0.10535c0-0.16537 0.13313-0.2985 0.2985-0.2985zm11.056-2.2125h2.2775c0.16599 0 0.29962 0.13363 0.29962 0.29963v0.10575c0 0.16599-0.13363 0.29962-0.29962 0.29962h-2.2775c-0.16599 0-0.29962-0.13363-0.29962-0.29962v-0.10575c0-0.166 0.13363-0.29963 0.29962-0.29963zm-8.5673 8e-3h6.7766c0.16243 0 0.2932 0.13077 0.2932 0.2932v0.10348c0 0.16243-0.13077 0.29319-0.2932 0.29319h-6.7766c-0.16243 0-0.2932-0.13076-0.2932-0.29319v-0.10348c0-0.16243 0.13077-0.2932 0.2932-0.2932zm-4.3839-6e-3h2.9088c0.16537 0 0.2985 0.13313 0.2985 0.2985v0.10535c0 0.16537-0.13313 0.2985-0.2985 0.2985h-2.9088c-0.16537 0-0.2985-0.13313-0.2985-0.2985v-0.10535c0-0.16537 0.13313-0.2985 0.2985-0.2985zm12.557-2.2086h5.1584c0.16353 0 0.29518 0.13165 0.29518 0.29518v0.10418c0 0.16353-0.13165 0.29518-0.29518 0.29518h-5.1584c-0.16353 0-0.29518-0.13165-0.29518-0.29518v-0.10418c0-0.16353 0.13165-0.29518 0.29518-0.29518zm-2.8442-8e-3h1.0543c0.16744 0 0.30224 0.1348 0.30224 0.30225v0.10667c0 0.16744-0.1348 0.30224-0.30224 0.30224h-1.0543c-0.16744 0-0.30224-0.1348-0.30224-0.30224v-0.10667c0-0.16745 0.1348-0.30225 0.30224-0.30225zm-3.1586 2e-3h1.6856c0.16664 0 0.3008 0.13415 0.3008 0.3008v0.10616c0 0.16664-0.13416 0.3008-0.3008 0.3008h-1.6856c-0.16664 0-0.3008-0.13416-0.3008-0.3008v-0.10616c0-0.16665 0.13416-0.3008 0.3008-0.3008zm-8.2118 8e-3h6.224c0.16279 0 0.29384 0.13105 0.29384 0.29384v0.10371c0 0.16279-0.13106 0.29384-0.29384 0.29384h-6.224c-0.16279 0-0.29384-0.13105-0.29384-0.29384v-0.10371c0-0.16279 0.13105-0.29384 0.29384-0.29384z" fill="#c9d2e9" fill-rule="evenodd" stroke="#000" stroke-linecap="square" stroke-linejoin="bevel" stroke-opacity=".41784" stroke-width=".037022" style="paint-order:stroke markers fill"/><path d="m64.816 125.24h3.6125c0.11094 0 0.20026 0.0892 0.20026 0.2s-0.08932 0.2-0.20026 0.2h-3.6125c-0.11094 0-0.20026-0.0892-0.20026-0.2s0.08932-0.2 0.20026-0.2zm-2.0569 0.22204a0.65 0.57778 0 0 1 -0.65 0.57777 0.65 0.57778 0 0 1 -0.65 -0.57777 0.65 0.57778 0 0 1 0.65 -0.57779 0.65 0.57778 0 0 1 0.65 0.57779z" fill-opacity=".70588" fill-rule="evenodd" style="paint-order:stroke markers fill"/></g><path d="m83.306 162.45c-0.69247-4e-3 -1.245 0.0516-1.8508 0.20405-0.96928 0.24213-2.0848 0.7301-2.7747 0.97163-0.68987 0.24154-1.0364 0.24158-1.4177 0.13784-0.3813-0.10374-0.93747-0.31226-1.5599-0.20872-0.62238 0.1035-1.3157 0.51957-4.8499 3.1181-2.698 1.9837-6.7327 5.0029-10.061 7.4965h8.3436c0.15364-0.12307 0.30911-0.23881 0.46917-0.33911 0.95377-0.59783 2.0237-0.78793 2.7966-0.89177 0.77288-0.1038 1.2403-0.12029 2.1414-0.15468 0.90116-0.0357 2.2305-0.0864 3.1773-0.22522 0.94676-0.13902 1.5007-0.3641 2.7222-0.56312 1.2216-0.19902 3.0643-0.36811 4.0302-0.4923 0.96598-0.12413 0.96623-0.19343 0.8275-0.43547-0.13871-0.24204-0.4167-0.65908-0.77933-0.90938-0.36264-0.25026-0.81109-0.33636-1.3922-0.35401-0.58116-0.0187-1.2932 0.0357-1.9856 0.0432-0.69238 9e-3 -1.3687-0.027-1.8974-0.17312-0.52869-0.14713-0.9089-0.40643-0.55337-0.8839 0.35553-0.47746 1.3843-1.1303 1.9789-1.505 0.5946-0.37477 0.6296-0.39174 1.3824-0.20877 0.75285 0.18298 2.215 0.56113 3.0868 0.73547 0.87179 0.17439 1.1301 0.14039 1.3734 0.0196 0.24332-0.12196 0.4688-0.33016 0.57178-0.44177 0.10298-0.11165 0.08433-0.12949 0.23302-0.11983 0.14863 0.0102 0.45657 0.0435 0.80519-0.0431 0.34862-0.0873 0.76631-0.31507 0.92972-0.40845 0.16341-0.0934 0.1461-0.0935-0.1402-0.22322-0.2863-0.12978-0.89418-0.41464-1.153-0.53226-0.25878-0.11758-0.27619-0.11742 0.04426-0.0645 0.32044 0.051 0.97624 0.15545 1.5755 0.0944 0.59927-0.06 1.1467-0.29055 1.3836-0.40883 0.23688-0.11831 0.18971-0.13347-0.28041-0.28981-0.4701-0.15644-1.4384-0.4792-1.8461-0.61253-0.40773-0.13332-0.4254-0.13339 0.0083-0.15942 0.43322-0.0271 1.3127-0.0776 1.9296-0.30389 0.61689-0.22619 0.95025-0.60894 1.1385-0.842 0.1882-0.23299 0.20559-0.28527-0.01932-0.32737-0.22478-0.0419-0.69299-0.0763-2.0008-0.19781-1.3078-0.12115-3.4605-0.3297-4.9482-0.4335-0.55788-0.0401-1.0238-0.0627-1.4392-0.0649z" fill-opacity=".13023" filter="url(#a)"/><path d="m57.755 175.65c3.1887-2.3915 9.5643-7.1732 13.099-9.7718 3.5342-2.5986 4.2274-3.0145 4.8498-3.118 0.62239-0.10351 1.1784 0.10497 1.5597 0.20872 0.38131 0.10375 0.72817 0.10375 1.418-0.1378 0.68987-0.24154 1.8052-0.72952 2.7745-0.97163 0.96928-0.24211 1.8024-0.24211 3.2901-0.13832 1.4877 0.10379 3.6403 0.31207 4.9482 0.43326s1.776 0.15578 2.001 0.19732c0.22501 0.0415 0.20716 0.095 0.01898 0.32797-0.18818 0.23299-0.52126 0.61603-1.1381 0.8422-0.61686 0.22618-1.4966 0.27791-1.9297 0.30395-0.43316 0.026-0.4158 0.026-8e-3 0.15932 0.40776 0.1333 1.3761 0.45607 1.8463 0.6123 0.47029 0.15624 0.51785 0.17122 0.28063 0.2892-0.23722 0.11798-0.78458 0.34753-1.3838 0.40851-0.59927 0.061-1.2551-0.0425-1.5755-0.0946-0.32037-0.0521-0.303-0.0521-0.0442 0.0656 0.2588 0.11763 0.8664 0.40245 1.1528 0.53224 0.28637 0.12979 0.30371 0.12979 0.14034 0.22319-0.16337 0.0934-0.58125 0.32129-0.92982 0.40832-0.34857 0.087-0.65664 0.0529-0.80496 0.0434-0.14831-9e-3 -0.1294 8e-3 -0.23293 0.11922-0.10353 0.11088-0.32882 0.3188-0.57224 0.44079-0.24342 0.12198-0.50133 0.1563-1.3732-0.0181-0.87184-0.17436-2.334-0.5528-3.0871-0.73587-0.75314-0.18307-0.78863-0.16634-1.3828 0.20798-0.5942 0.37433-1.6228 1.0274-1.9783 1.5049-0.35552 0.47747 0.02473 0.73673 0.55345 0.88388 0.52872 0.14715 1.205 0.18176 1.8974 0.17301 0.69236-9e-3 1.4042-0.0609 1.9853-0.0432 0.58116 0.0177 1.0296 0.10384 1.3923 0.35412 0.36263 0.25028 0.6406 0.66725 0.77933 0.90891 0.13873 0.24165 0.13873 0.31156-0.82725 0.43572-0.96598 0.12417-2.809 0.29329-4.0306 0.49232s-1.7755 0.42404-2.7222 0.5631-2.276 0.19085-3.1772 0.22503c-0.90118 0.0342-1.3684 0.0505-2.1413 0.15416-0.77284 0.10363-1.843 0.29339-2.7968 0.89119-0.95379 0.5978-1.7839 1.6008-2.6046 2.9985-0.82069 1.3976-1.64 3.2106-3.8334 3.7051-2.1934 0.4945-5.7584-0.31891-7.5319-0.73169s-1.7237-0.43624-1.6339-0.47664c0.08987-0.0404 0.25488-0.11381 0.35802-0.20035 0.10315-0.0865 0.15572-0.19172 0.18122-0.24274 0.0255-0.051 0.02524-0.0411 3.214-2.4326z" fill="#ffd9a6"/><path d="m82.373 165.15c1.4595 0.38686 2.8771 0.76259 4.3139 1.1434m-3.1185-1.6632l3.5343 0.46766m-5.4054 0.67578c0.66027-0.55601 1.3185-1.1103 1.6994-1.4219 0.38096-0.31159 0.48532-0.38122 1.226-0.43228 0.74066-0.0511 2.1698-0.0863 3.5714-0.12079" fill="none" stroke="#000" stroke-linecap="round" stroke-opacity=".097674" stroke-width=".40859"/><path d="m104.64 162.05c0.6925-4e-3 1.2451 0.0516 1.8509 0.20405 0.96934 0.24208 2.0848 0.73005 2.7747 0.97161 0.68988 0.24153 1.0364 0.24158 1.4177 0.13784 0.38132-0.10372 0.93752-0.31225 1.5599-0.20874 0.62241 0.10353 1.3157 0.51958 4.85 3.1182 2.698 1.9838 6.7326 5.0029 10.061 7.4965h-8.3436c-0.15364-0.12304-0.30909-0.23882-0.46914-0.33911-0.95378-0.59782-2.0237-0.78795-2.7967-0.89177-0.77283-0.10382-1.2403-0.12029-2.1414-0.15471-0.90119-0.0354-2.2306-0.0864-3.1773-0.22513-0.94675-0.13909-1.5006-0.36416-2.7223-0.5632-1.2215-0.199-3.0643-0.3681-4.0302-0.49228-0.96599-0.12415-0.96625-0.19342-0.82752-0.43548 0.13872-0.24203 0.41669-0.65908 0.77934-0.90936 0.36265-0.2503 0.81112-0.33639 1.3922-0.35404 0.58116-0.0186 1.2932 0.0357 1.9856 0.0426 0.69235 9e-3 1.3688-0.0271 1.8975-0.1731 0.5287-0.14713 0.90886-0.40647 0.55337-0.88391-0.35556-0.47743-1.3843-1.1303-1.979-1.5051-0.59459-0.3747-0.62953-0.39174-1.3824-0.20868-0.75287 0.183-2.2151 0.56106-3.0869 0.73548-0.8718 0.17435-1.1301 0.14037-1.3734 0.0196-0.24331-0.12197-0.46879-0.33015-0.57178-0.44181-0.10298-0.11157-0.0843-0.12939-0.23302-0.11982-0.14863 0.0102-0.45657 0.0435-0.80519-0.0426-0.34862-0.0873-0.76631-0.31514-0.92972-0.40848-0.16342-0.0934-0.14609-0.0934 0.1402-0.22324 0.2863-0.12979 0.89418-0.41457 1.153-0.53225 0.25878-0.11759 0.27619-0.11744-0.0442-0.0645-0.32044 0.051-0.97625 0.15539-1.5755 0.0944-0.59927-0.0599-1.1467-0.29059-1.3836-0.40886-0.23688-0.1183-0.18971-0.13343 0.28041-0.28983 0.47011-0.1564 1.4384-0.47919 1.8461-0.61251 0.40772-0.13334 0.42538-0.13341-8e-3 -0.15937-0.43323-0.0271-1.3127-0.0776-1.9296-0.3039-0.61689-0.22619-0.95026-0.60901-1.1385-0.84202-0.18821-0.23299-0.2056-0.28525 0.0193-0.32739 0.22478-0.0418 0.69299-0.0763 2.0008-0.19777 1.3078-0.12118 3.4605-0.32974 4.9482-0.43354 0.55789-0.0401 1.0238-0.0623 1.4393-0.0649z" fill-opacity=".12941" filter="url(#b)"/><path d="m130.18 175.24c-3.1887-2.3915-9.5643-7.1732-13.099-9.7718s-4.2274-3.0145-4.8498-3.118c-0.62239-0.1035-1.1785 0.10499-1.5598 0.20873-0.38128 0.10374-0.72821 0.10374-1.4181-0.13782-0.6899-0.24155-1.8052-0.72949-2.7745-0.97161s-1.8024-0.24212-3.2901-0.13833c-1.4877 0.10379-3.6403 0.31206-4.9482 0.43325-1.3079 0.12119-1.776 0.15578-2.001 0.19731-0.22502 0.0415-0.20716 0.095-0.01896 0.32797 0.1882 0.23301 0.52125 0.61601 1.1381 0.84219s1.4966 0.27791 1.9298 0.30395c0.43316 0.026 0.41576 0.026 8e-3 0.15932-0.40773 0.1333-1.376 0.45606-1.8463 0.61229s-0.51786 0.17122-0.28065 0.28919c0.23721 0.11796 0.78458 0.3475 1.3838 0.40847 0.59927 0.061 1.2551-0.0426 1.5755-0.0946 0.32038-0.0521 0.30308-0.0521 0.0442 0.0656-0.25888 0.11763-0.8665 0.40247-1.1529 0.53226s-0.30376 0.12979-0.14035 0.22319 0.58129 0.32129 0.92987 0.40833c0.34857 0.087 0.65664 0.0529 0.80497 0.0434 0.14834-0.01 0.12939 8e-3 0.23293 0.11925 0.10353 0.11089 0.32882 0.3188 0.57223 0.44078 0.24342 0.12197 0.50133 0.15628 1.3732-0.0181 0.87184-0.17437 2.334-0.55281 3.0875-0.73568 0.75349-0.18288 0.78768-0.16674 1.3822 0.20777 0.59453 0.3745 1.6231 1.0275 1.9786 1.505 0.35553 0.47749-0.0247 0.73675-0.55346 0.88389-0.52873 0.14713-1.205 0.18175-1.8974 0.17299-0.69234-9e-3 -1.4041-0.0608-1.9853-0.0432-0.58118 0.0177-1.0296 0.10385-1.3923 0.35411-0.36263 0.25026-0.64062 0.66723-0.77935 0.90888-0.13874 0.24165-0.13874 0.31162 0.82725 0.43576 0.96598 0.12413 2.809 0.29325 4.0306 0.4923s1.7755 0.42406 2.7222 0.56312 2.276 0.19085 3.1772 0.22503c0.90119 0.0342 1.3684 0.0505 2.1413 0.15416 0.77285 0.10363 1.843 0.29338 2.7968 0.89119 0.95381 0.5978 1.7839 1.6008 2.6046 2.9985 0.82069 1.3976 1.64 3.2106 3.8334 3.705 2.1934 0.4945 5.7584-0.31891 7.5316-0.73182 1.7732-0.4129 1.7245-0.43591 1.6344-0.47642-0.0901-0.0405-0.25511-0.11391-0.35816-0.20025-0.10305-0.0863-0.15577-0.19183-0.1813-0.24289-0.0255-0.0511-0.0252-0.0412-3.2139-2.4327z" fill="#ffd9a6"/><path d="m105.56 164.75c-1.4596 0.38687-2.8772 0.76259-4.314 1.1434m3.1185-1.6631s-3.5343 0.46768-3.5343 0.46768m5.4054 0.67574c-0.66025-0.55597-1.3185-1.1103-1.6995-1.4219-0.38097-0.3116-0.48536-0.38124-1.226-0.43229-0.74064-0.0511-2.1698-0.0863-3.5714-0.12079" fill="none" stroke="#000" stroke-linecap="round" stroke-opacity=".097674" stroke-width=".40859"/></g></svg>
