<svg xmlns="http://www.w3.org/2000/svg" width="494.551" height="421.38" viewBox="0 0 130.853 111.487" focusable="false"><defs><filter id="b" width="1.022" height="1.027" x="-.011" y="-.014" color-interpolation-filters="sRGB"><feGaussianBlur stdDeviation=".165"/></filter><filter id="c" width="1.096" height="1.096" x="-.048" y="-.048" color-interpolation-filters="sRGB"><feGaussianBlur stdDeviation=".064"/></filter><filter id="a" width="1.04" height="1.061" x="-.02" y="-.03" color-interpolation-filters="sRGB"><feGaussianBlur stdDeviation=".457"/></filter><filter id="e" width="1.028" height="1.19" x="-.014" y="-.095" color-interpolation-filters="sRGB"><feGaussianBlur stdDeviation=".147"/></filter><filter id="d" width="1.065" height="1.038" x="-.033" y="-.019" color-interpolation-filters="sRGB"><feGaussianBlur stdDeviation=".4"/></filter><filter id="g" width="1.075" height="1.293" x="-.038" y="-.147" color-interpolation-filters="sRGB"><feGaussianBlur stdDeviation="1.228"/></filter><filter id="f" width="1.096" height="1.161" x="-.048" y="-.08" color-interpolation-filters="sRGB"><feGaussianBlur stdDeviation="1.392"/></filter><filter id="i" width="1.033" height="1.088" x="-.017" y="-.044" color-interpolation-filters="sRGB"><feGaussianBlur stdDeviation=".214"/></filter><filter id="h" width="1.033" height="1.088" x="-.017" y="-.044" color-interpolation-filters="sRGB"><feGaussianBlur stdDeviation=".214"/></filter></defs><path fill-opacity=".131" fill-rule="evenodd" d="M26.007 88.582h47.9a3.696 3.696 0 0 1 3.704 3.704v28.768a3.696 3.696 0 0 1-3.704 3.704h-47.9a3.696 3.696 0 0 1-3.704-3.704V92.286a3.696 3.696 0 0 1 3.704-3.704z" filter="url(#a)" paint-order="stroke markers fill" transform="translate(-7.798 -81.484)"/><path fill="#f5f5f5" d="M16.621 6.04h47.9a3.696 3.696 0 0 1 3.704 3.704v28.768a3.696 3.696 0 0 1-3.704 3.704h-47.9a3.696 3.696 0 0 1-3.704-3.704V9.744A3.696 3.696 0 0 1 16.62 6.04z" paint-order="stroke markers fill"/><path fill="#fff" stroke="#000" stroke-linecap="square" stroke-linejoin="bevel" stroke-opacity=".7" stroke-width=".053" d="M34.131 91.253h36.778v29.17H34.131z" filter="url(#b)" paint-order="stroke markers fill" transform="translate(-7.798 -81.484)"/><path fill="#ff7300" fill-rule="evenodd" d="M17.073 9.67h9.79v29.369h-9.79z" paint-order="stroke markers fill"/><g fill="#fff" fill-rule="evenodd" paint-order="stroke markers fill"><path d="M18.391 16.752h6.439v.7h-6.44zm0-1.723h5v.7h-5zm0-1.98h6.439v.7h-6.44z"/><path fill-opacity=".498" d="M18.391 32.626h2.337v.7h-2.337zm0-2.116h4.454v.7h-4.454zm0-2.646h6.439v.7h-6.44zm0-2.252h5v.7h-5zm0-2.117h5v.7h-5zm0-1.981h6.439v.7h-6.44z"/></g><path fill-opacity=".394" fill-rule="evenodd" d="M15.022 19.856a.33.33 0 0 1 .33.33v6.218a.33.33 0 1 1-.66 0v-6.217a.33.33 0 0 1 .33-.331z" paint-order="stroke markers fill"/><path fill="none" stroke="#000" stroke-linecap="square" stroke-linejoin="bevel" stroke-opacity=".7" stroke-width=".079" d="M75.101 105.89a1.6 1.6 0 0 1-1.6 1.6 1.6 1.6 0 0 1-1.6-1.6 1.6 1.6 0 0 1 1.6-1.6 1.6 1.6 0 0 1 1.6 1.6z" filter="url(#c)" paint-order="stroke markers fill" transform="translate(-7.798 -81.484)"/><g fill-rule="evenodd" paint-order="stroke markers fill"><path fill="#e30000" d="M29.177 10.993h2.514a.99.99 0 0 1 .992.993v1.984a.99.99 0 0 1-.992.992h-2.514a.99.99 0 0 1-.992-.992v-1.984a.99.99 0 0 1 .992-.993z"/><path fill="#e300df" d="M29.177 16.814h2.514a.99.99 0 0 1 .992.993v1.984a.99.99 0 0 1-.992.992h-2.514a.99.99 0 0 1-.992-.992v-1.984a.99.99 0 0 1 .992-.993z"/><path fill="#1a00df" d="M29.177 22.634h2.514a.99.99 0 0 1 .992.993v1.984a.99.99 0 0 1-.992.992h-2.514a.99.99 0 0 1-.992-.992v-1.984a.99.99 0 0 1 .992-.993z"/><path fill-opacity=".235" d="M34.271 26.074h20.77v.794h-20.77zm0-1.587h14.817v.794H34.271zm0-1.588h8.334v.794h-8.334zm0-2.645h20.637v.793H34.271zm0-1.588h8.864v.794H34.27zm0-1.587h12.303v.793H34.271zm0-2.646h12.303v.794H34.271zm0-1.588h15.346v.794H34.271zm0-1.587h6.085v.794h-6.085z"/><path fill-opacity=".15" d="M35.726 28.716h17.859c.806 0 1.455.65 1.455 1.456v5.556c0 .806-.649 1.455-1.455 1.455H35.726a1.452 1.452 0 0 1-1.455-1.455v-5.556c0-.807.649-1.456 1.455-1.456z"/></g><path fill-rule="evenodd" d="M7.498 39.126h16.564c.83 0 1.498 1.493 1.498 3.348v26.96c0 1.855-.668 3.348-1.498 3.348H7.498c-.83 0-1.498-1.493-1.498-3.348v-26.96c0-1.855.668-3.348 1.498-3.348z" paint-order="stroke markers fill"/><path fill-opacity=".202" fill-rule="evenodd" d="M11.377 104.12h24.871c1.246 0 2.249 2.242 2.249 5.027v40.481c0 2.785-1.003 5.027-2.249 5.027H11.377c-1.246 0-2.249-2.242-2.249-5.027v-40.48c0-2.786 1.003-5.028 2.249-5.028z" filter="url(#d)" paint-order="stroke markers fill" transform="matrix(.666 0 0 .666 .626 -29.509)"/><path fill="#fff" fill-opacity=".685" fill-rule="evenodd" d="M9.339 41.146a.242.242 0 0 1-.242.242.242.242 0 0 1-.241-.242.242.242 0 0 1 .241-.242.242.242 0 0 1 .242.242zm4.365-.203H17.7c.07 0 .127.053.127.12 0 .066-.056.119-.127.119h-3.997a.123.123 0 0 1-.127-.12c0-.066.056-.12.127-.12z" paint-order="stroke markers fill"/><path fill="none" stroke="#fff" stroke-linecap="square" stroke-linejoin="bevel" stroke-opacity=".7" stroke-width=".05" d="M9.366 69.956h.348c.197 0 .357.16.357.357v.348c0 .197-.16.357-.357.357h-.348a.356.356 0 0 1-.357-.357v-.348c0-.198.16-.357.357-.357zm12.962.897l-.038.093-.952-.487-.072-.076.953-.486.11-.017zm-5.997-.388a.53.53 0 0 1-.53.53.53.53 0 0 1-.53-.53.53.53 0 0 1 .53-.53.53.53 0 0 1 .53.53z" paint-order="stroke markers fill"/><path fill="#010000" fill-opacity=".164" fill-rule="evenodd" d="M9.922 108.88h25.665v3.704H9.922z" filter="url(#e)" paint-order="stroke markers fill" transform="matrix(.666 0 0 .666 .626 -29.509)"/><g fill-rule="evenodd" paint-order="stroke markers fill"><path fill="#fff" d="M7.233 42.826h17.093v25.551H7.233z"/><path fill="#ff7300" d="M7.233 42.746h17.093v2.467H7.233z"/><path fill="#54ce00" d="M8.511 46.086h1.674a.66.66 0 0 1 .66.66v1.322a.66.66 0 0 1-.66.661H8.511a.66.66 0 0 1-.66-.66v-1.322a.66.66 0 0 1 .66-.661z"/><path fill="#540600" d="M8.511 49.966h1.674a.66.66 0 0 1 .66.66v1.322a.66.66 0 0 1-.66.661H8.511a.66.66 0 0 1-.66-.66v-1.322a.66.66 0 0 1 .66-.661z"/><path fill="#5406cd" d="M8.511 53.846h1.674a.66.66 0 0 1 .66.66v1.322a.66.66 0 0 1-.66.661H8.511a.66.66 0 0 1-.66-.66v-1.322a.66.66 0 0 1 .66-.661z"/><path fill="#fa06cd" d="M8.511 57.716h1.674a.66.66 0 0 1 .66.66v1.322a.66.66 0 0 1-.66.661H8.511a.66.66 0 0 1-.66-.66v-1.322a.66.66 0 0 1 .66-.661z"/><path fill="#54ce00" d="M8.511 61.596h1.674a.66.66 0 0 1 .66.66v1.322a.66.66 0 0 1-.66.661H8.511a.66.66 0 0 1-.66-.66v-1.322a.66.66 0 0 1 .66-.661z"/><path fill="#5406cd" d="M8.511 65.476h1.674a.66.66 0 0 1 .66.66v1.322a.66.66 0 0 1-.66.661H8.511a.66.66 0 0 1-.66-.66v-1.322a.66.66 0 0 1 .66-.661z"/><path fill-opacity=".235" d="M11.551 67.456h8.194v.529H11.55zm0-1.057h10.22v.528h-10.22zm0-1.058h4.053v.529H11.55zm.088-1.63h8.194v.529h-8.194zm0-1.057h10.22v.529H11.64zm0-1.057h4.053v.529h-4.053zm-.044-1.718h8.194v.528h-8.194zm0-1.058h10.22v.529h-10.22zm0-1.057h4.053v.529h-4.053zm-.088-1.762H19.7v.528h-8.194zm0-1.057h10.22v.528h-10.22zm0-1.058h4.053v.529h-4.053zm-.088-1.938h8.194v.529h-8.194zm0-1.057h10.22v.528h-10.22zm0-1.057h4.053v.528h-4.053zm-.132-1.675h8.194v.529h-8.194zm0-1.057h10.22v.529h-10.22zm0-1.057h4.053v.529h-4.053z"/></g><g stroke="#d7e8e1"><path fill="#fff" fill-opacity=".258" fill-rule="evenodd" stroke-linecap="square" stroke-linejoin="bevel" stroke-width=".476" d="M19.574 73.026h1.744v2.802h-1.744z" paint-order="stroke markers fill"/><path fill="none" stroke-width=".765" d="M42.155 93.726c-6.484.21-12.974.21-19.457 0-.382-.012-.775-.028-1.123-.187a1.67 1.67 0 0 1-.644-.54 2.336 2.336 0 0 1-.356-.765c-.149-.547-.135-1.122-.122-1.689.125-5.362.125-10.727 0-16.09"/><path fill="#fff" fill-opacity=".258" fill-rule="evenodd" stroke-linecap="square" stroke-linejoin="bevel" stroke-width=".665" d="M41.109 92.436h3.645l-.719 2.613H40.39z" paint-order="stroke markers fill"/></g><path fill-opacity=".479" fill-rule="evenodd" d="M59.531 119.73h62.971a3.432 3.432 0 0 1 3.44 3.44v34.66a3.432 3.432 0 0 1-3.44 3.44H59.531a3.432 3.432 0 0 1-3.44-3.44v-34.66a3.432 3.432 0 0 1 3.44-3.44z" filter="url(#f)" paint-order="stroke markers fill" transform="translate(-7.798 -81.484)"/><path fill="#c9d2e9" fill-rule="evenodd" d="M51.93 37.056h62.576a3.629 3.629 0 0 1 3.637 3.637V77.34a3.629 3.629 0 0 1-3.637 3.637H51.93a3.629 3.629 0 0 1-3.637-3.637V40.693a3.629 3.629 0 0 1 3.637-3.637z" paint-order="stroke markers fill"/><path fill-opacity=".833" fill-rule="evenodd" stroke="#000" stroke-linecap="square" stroke-linejoin="bevel" stroke-opacity=".418" stroke-width=".1" d="M53.321 42.746h59.267v33.602H53.321z" paint-order="stroke markers fill"/><path fill-opacity=".221" fill-rule="evenodd" stroke="#000" stroke-linecap="square" stroke-linejoin="bevel" stroke-opacity=".502" stroke-width=".155" d="M57.71 163.91h65.556c1.19 0 1.908.774 2.147 1.665l4.233 15.798c.24.891 0 2.646-6.38 2.646H57.71c-6.116 0-6.34-1.751-6.116-2.646l3.969-15.798c.225-.895.958-1.665 2.147-1.665z" filter="url(#g)" paint-order="stroke markers fill" transform="translate(-7.798 -81.484)"/><path fill="#c9d2e9" fill-rule="evenodd" d="M49.577 81.896h66.222c1.201 0 1.928.774 2.169 1.665l4.276 15.798c.241.891 0 2.646-6.445 2.646H49.577c-6.178 0-6.405-1.751-6.178-2.646l4.01-15.798c.226-.895.966-1.665 2.168-1.665z" paint-order="stroke markers fill"/><path fill="#dce6ff" fill-rule="evenodd" d="M49.912 80.316h65.556c1.19 0 1.908.774 2.147 1.665l4.233 15.798c.24.891 0 2.646-6.38 2.646H49.912c-6.116 0-6.34-1.751-6.116-2.646l3.969-15.798c.225-.895.958-1.665 2.147-1.665z" paint-order="stroke markers fill"/><path fill-opacity=".088" fill-rule="evenodd" d="M73.447 93.276H91.07a.57.57 0 0 1 .577.416l1.138 3.95c.064.223 0 .662-1.715.662H73.447c-1.644 0-1.705-.438-1.644-.662l1.067-3.95c.06-.223.257-.416.577-.416zM54.814 81.37h55.792c1.012 0 1.704.391 1.827.898l2.387 9.833c.123.507 1.216.118-4.214.118H54.814c-5.205 0-4.198.388-4.082-.118l2.255-9.833c.116-.506.815-.898 1.827-.898z" paint-order="stroke markers fill"/><path fill="#120736" fill-opacity=".911" fill-rule="evenodd" d="M53.268 42.836h8.793v33.489h-8.793z" paint-order="stroke markers fill"/><path fill-opacity=".254" fill-rule="evenodd" d="M83.376 40.306a.561.561 0 0 1-.561.561.561.561 0 0 1-.562-.561.561.561 0 0 1 .562-.561.561.561 0 0 1 .561.561z" paint-order="stroke markers fill"/><path fill="#fff" fill-opacity=".366" fill-rule="evenodd" d="M53.886 59.516h1.203a.1.1 0 0 1 .1.1v1.203a.1.1 0 0 1-.1.1h-1.203a.1.1 0 0 1-.1-.1v-1.203a.1.1 0 0 1 .1-.1zm.037-1.767h3.666a.28.28 0 1 1 0 .56h-3.666a.28.28 0 1 1 0-.56zm0-1.588h6.753a.28.28 0 1 1 0 .561h-6.753a.28.28 0 1 1 0-.56zm0-1.587h4.508a.28.28 0 1 1 0 .56h-4.508a.28.28 0 1 1 0-.56zm1.515-2.822a.842.748 0 0 1-.842.748.842.748 0 0 1-.842-.748.842.748 0 0 1 .842-.749.842.748 0 0 1 .842.749zm-1.515-2.47h3.666a.28.28 0 1 1 0 .561h-3.666a.28.28 0 1 1 0-.561zm0-1.587h5.069a.28.28 0 1 1 0 .56h-5.069a.28.28 0 1 1 0-.56z" paint-order="stroke markers fill"/><path fill="#4987ff" fill-rule="evenodd" d="M53.193 75.196h59.389v1.216H53.193z" paint-order="stroke markers fill"/><path fill="#fff" fill-opacity=".465" fill-rule="evenodd" d="M53.916 75.686h8.136v.33h-8.136z" paint-order="stroke markers fill"/><path fill="#fff" fill-rule="evenodd" d="M53.223 42.516h59.497v4.445H53.223z" paint-order="stroke markers fill"/><path fill="none" stroke="#000" stroke-linecap="square" stroke-linejoin="bevel" stroke-opacity=".418" stroke-width=".116" d="M109.492 44.206l-.021-.021 1.097-1.097.021.02zm-.021-1.097l.021-.021 1.097 1.097-.021.021z" paint-order="stroke markers fill"/><path fill="none" stroke="#000" stroke-linecap="square" stroke-linejoin="bevel" stroke-opacity=".418" stroke-width=".115" d="M105.052 43.336h.952v.803h-.952zm.297-.045v-.237h.952v.802h-.238" paint-order="stroke markers fill"/><path fill="#959595" fill-rule="evenodd" d="M100.462 43.396h1.83v.2h-1.83z" paint-order="stroke markers fill"/><path fill="#c9d2e9" fill-rule="evenodd" stroke="#000" stroke-linecap="square" stroke-linejoin="bevel" stroke-opacity=".418" stroke-width=".037" d="M78.745 62.916h5.356c.163 0 .295.132.295.295v.104a.294.294 0 0 1-.295.295h-5.356a.294.294 0 0 1-.295-.295v-.104c0-.163.132-.295.295-.295zm-4.581-.005h2.514c.166 0 .3.133.3.3v.105a.299.299 0 0 1-.3.299h-2.514a.299.299 0 0 1-.3-.3v-.105c0-.166.134-.299.3-.299zm-6.002.003h4.054c.164 0 .297.132.297.297v.104a.296.296 0 0 1-.297.297h-4.053a.296.296 0 0 1-.297-.297v-.104c0-.165.132-.297.296-.297zm1.264-2.211h4.053c.165 0 .297.132.297.297v.104a.296.296 0 0 1-.297.297h-4.053a.296.296 0 0 1-.297-.297V61c0-.165.133-.297.297-.297zm4.107-1.895h4.053c.164 0 .297.132.297.296v.105a.296.296 0 0 1-.297.297h-4.053a.296.296 0 0 1-.297-.297v-.105c0-.164.132-.296.297-.296zm-7.266 0h4.053c.165 0 .297.132.297.296v.105a.296.296 0 0 1-.297.297h-4.053a.296.296 0 0 1-.297-.297v-.105c0-.164.133-.296.297-.296zm13.898-1.9h2.278a.3.3 0 0 1 .3.3v.106a.3.3 0 0 1-.3.3h-2.278a.299.299 0 0 1-.3-.3v-.106a.3.3 0 0 1 .3-.3zm-8.567.009h6.776c.163 0 .294.13.294.293v.103a.293.293 0 0 1-.294.294h-6.776a.293.293 0 0 1-.293-.294v-.103c0-.162.13-.293.293-.293zm7.62-2.215h4.409c.164 0 .296.132.296.296v.105a.296.296 0 0 1-.296.296h-4.409a.296.296 0 0 1-.296-.296v-.105c0-.164.132-.296.296-.296zm-5.686 0h4.053c.165 0 .297.132.297.296v.105a.296.296 0 0 1-.297.297h-4.053a.296.296 0 0 1-.297-.297v-.105c0-.164.133-.296.297-.296zM69.11 54.7h2.91c.165 0 .298.133.298.298v.105a.298.298 0 0 1-.299.299H69.11a.298.298 0 0 1-.298-.299v-.105c0-.165.133-.298.298-.298zm11.056-2.213h2.278a.3.3 0 0 1 .3.3v.105a.3.3 0 0 1-.3.3h-2.278a.299.299 0 0 1-.3-.3v-.105a.3.3 0 0 1 .3-.3zm-8.567.008h6.777c.162 0 .293.13.293.293v.104c0 .162-.13.293-.293.293h-6.777a.293.293 0 0 1-.293-.293v-.104c0-.162.13-.293.293-.293zm-4.384-.006h2.909c.165 0 .298.133.298.299v.105a.298.298 0 0 1-.298.298h-2.909a.298.298 0 0 1-.298-.298v-.105c0-.166.133-.299.298-.299zm12.557-2.209h5.159c.163 0 .295.132.295.296v.104a.295.295 0 0 1-.295.295H79.77a.295.295 0 0 1-.295-.295v-.104c0-.164.132-.296.295-.296zm-2.844-.008h1.054c.168 0 .303.135.303.303v.106a.302.302 0 0 1-.303.303h-1.054a.302.302 0 0 1-.302-.303v-.106c0-.168.135-.303.302-.303zm-3.159.002h1.686a.3.3 0 0 1 .3.301v.106a.3.3 0 0 1-.3.301h-1.686a.3.3 0 0 1-.3-.3v-.107a.3.3 0 0 1 .3-.3zm-8.211.008h6.224c.162 0 .293.131.293.294v.104a.293.293 0 0 1-.293.294h-6.224a.293.293 0 0 1-.294-.294v-.104c0-.163.13-.294.294-.294z" paint-order="stroke markers fill"/><path fill-opacity=".706" fill-rule="evenodd" d="M57.018 43.756h3.612a.2.2 0 1 1 0 .4h-3.612a.2.2 0 1 1 0-.4zm-2.057.222a.65.578 0 0 1-.65.578.65.578 0 0 1-.65-.578.65.578 0 0 1 .65-.578.65.578 0 0 1 .65.578z" paint-order="stroke markers fill"/><path fill-opacity=".13" d="M83.306 162.45c-.692-.004-1.245.052-1.85.204-.97.242-2.086.73-2.776.972-.69.241-1.036.241-1.417.138-.382-.104-.938-.313-1.56-.21-.622.104-1.316.52-4.85 3.119a1621.573 1621.573 0 0 0-10.061 7.496h8.344c.153-.123.309-.238.469-.339.954-.598 2.023-.788 2.796-.891.773-.104 1.24-.12 2.142-.155.9-.036 2.23-.087 3.177-.225.947-.14 1.5-.364 2.722-.564 1.222-.199 3.065-.368 4.03-.492.966-.124.967-.193.828-.435s-.417-.66-.78-.91c-.362-.25-.81-.336-1.392-.354-.58-.018-1.293.036-1.985.044-.693.009-1.369-.027-1.898-.174-.528-.147-.908-.406-.553-.883.356-.478 1.384-1.13 1.979-1.505.595-.375.63-.392 1.382-.21.753.184 2.215.562 3.087.736.872.175 1.13.14 1.374.02.243-.122.468-.33.571-.442.103-.112.085-.13.233-.12.149.01.457.044.806-.043.348-.087.766-.315.93-.408.163-.094.145-.094-.14-.224-.287-.13-.895-.414-1.154-.532-.259-.117-.276-.117.044-.064.32.05.977.155 1.576.094a4.24 4.24 0 0 0 1.383-.409c.237-.118.19-.133-.28-.29-.47-.156-1.438-.479-1.846-.612-.408-.133-.425-.133.008-.16.433-.027 1.313-.077 1.93-.303.617-.227.95-.61 1.138-.842.189-.233.206-.286-.019-.328-.225-.042-.693-.076-2-.198-1.309-.12-3.461-.33-4.949-.433a21.885 21.885 0 0 0-1.44-.065z" filter="url(#h)" transform="translate(-13.798 -75.484)"/><path fill="#ffd9a6" d="M43.957 100.166c3.189-2.391 9.564-7.173 13.099-9.772 3.534-2.598 4.227-3.014 4.85-3.118.622-.103 1.178.105 1.56.209.38.104.728.104 1.417-.138.69-.241 1.806-.73 2.775-.972.97-.242 1.802-.242 3.29-.138 1.488.104 3.64.312 4.948.433s1.776.156 2.001.198c.225.041.207.095.02.328a2.534 2.534 0 0 1-1.139.842c-.617.226-1.496.278-1.93.304-.433.026-.415.026-.008.16.408.132 1.377.455 1.847.611.47.157.518.172.28.29a4.316 4.316 0 0 1-1.383.408c-.6.061-1.255-.042-1.576-.094-.32-.052-.303-.052-.044.065.259.118.866.403 1.153.532.286.13.303.13.14.224-.163.093-.581.32-.93.408-.348.087-.656.053-.805.043-.148-.009-.13.008-.233.12a2.25 2.25 0 0 1-.572.44c-.243.122-.501.157-1.373-.018-.872-.174-2.334-.553-3.087-.736-.753-.183-.789-.166-1.383.208-.594.375-1.623 1.028-1.978 1.505-.356.478.024.737.553.884.529.147 1.205.182 1.898.173.692-.009 1.404-.06 1.985-.043.581.018 1.03.104 1.392.354.363.25.64.667.78.909.138.242.138.312-.828.436s-2.809.293-4.03.492-1.776.424-2.723.563-2.276.191-3.177.225c-.9.034-1.368.05-2.141.154-.773.104-1.843.294-2.797.892-.954.597-1.784 1.6-2.604 2.998-.821 1.398-1.64 3.21-3.834 3.705-2.193.495-5.758-.319-7.532-.732s-1.723-.436-1.634-.476c.09-.04.255-.114.358-.2.104-.087.156-.192.182-.243.025-.051.025-.041 3.214-2.433z"/><path fill="none" stroke="#000" stroke-linecap="round" stroke-opacity=".098" stroke-width=".409" d="M68.575 89.666l4.314 1.143m-3.119-1.663l3.535.468m-5.406.676c.66-.556 1.319-1.11 1.7-1.422.38-.312.485-.381 1.226-.433.74-.05 2.17-.086 3.571-.12"/><path fill-opacity=".129" d="M104.64 162.05c.693-.004 1.245.052 1.85.204.97.242 2.086.73 2.776.972.69.241 1.036.241 1.417.138.382-.104.938-.313 1.56-.21.623.104 1.316.52 4.85 3.119a1647.87 1647.87 0 0 1 10.061 7.496h-8.343a5.037 5.037 0 0 0-.47-.339c-.953-.597-2.023-.788-2.796-.891-.773-.104-1.24-.12-2.142-.155-.9-.036-2.23-.087-3.177-.225-.947-.14-1.5-.364-2.722-.563-1.222-.2-3.065-.369-4.03-.493-.966-.124-.967-.193-.828-.435s.417-.66.78-.91c.362-.25.81-.336 1.392-.354.58-.018 1.293.036 1.985.043.693.009 1.369-.027 1.898-.173.528-.147.909-.407.553-.884-.356-.477-1.384-1.13-1.979-1.505-.595-.375-.63-.392-1.382-.209-.753.183-2.215.561-3.087.736-.872.174-1.13.14-1.374.02a2.223 2.223 0 0 1-.571-.443c-.103-.111-.085-.129-.233-.12-.15.01-.457.044-.806-.042-.348-.087-.766-.315-.93-.408-.163-.094-.145-.094.14-.224.287-.13.895-.414 1.154-.532.259-.118.276-.117-.044-.064-.32.05-.977.155-1.576.094a4.24 4.24 0 0 1-1.383-.409c-.237-.118-.19-.133.28-.29.47-.156 1.438-.479 1.846-.612.408-.134.425-.134-.008-.16-.433-.027-1.313-.077-1.93-.303a2.536 2.536 0 0 1-1.138-.843c-.188-.233-.206-.285.02-.327.224-.042.692-.076 2-.198 1.308-.12 3.46-.33 4.948-.433a21.83 21.83 0 0 1 1.44-.065z" filter="url(#i)" transform="translate(-13.798 -75.484)"/><path fill="#ffd9a6" d="M116.382 99.756c-3.189-2.391-9.564-7.173-13.099-9.772s-4.227-3.014-4.85-3.118c-.622-.103-1.178.105-1.56.209-.38.104-.728.104-1.418-.138-.69-.241-1.805-.73-2.774-.971s-1.803-.243-3.29-.139c-1.488.104-3.64.312-4.948.433-1.308.122-1.776.156-2.001.198-.226.041-.208.095-.02.328.189.233.522.616 1.139.842s1.496.278 1.93.304c.433.026.415.026.007.16-.407.132-1.376.455-1.846.611s-.518.172-.28.29c.237.118.784.347 1.383.408.6.061 1.255-.042 1.576-.094.32-.053.303-.053.044.065s-.867.403-1.153.532-.304.13-.14.224.581.32.93.408c.348.087.656.053.805.043.148-.01.129.008.233.12.103.11.328.318.572.44.243.122.501.157 1.373-.018.872-.174 2.334-.553 3.087-.735.754-.183.788-.167 1.383.207.594.375 1.623 1.028 1.978 1.505.356.478-.024.737-.553.884-.529.147-1.205.182-1.898.173-.692-.009-1.404-.06-1.985-.043-.581.018-1.03.104-1.392.354-.363.25-.64.667-.78.909-.138.242-.138.312.828.436s2.809.293 4.03.492 1.776.424 2.722.563 2.276.191 3.178.225c.9.034 1.368.05 2.141.154.773.104 1.843.294 2.797.892.954.597 1.784 1.6 2.604 2.998.821 1.398 1.64 3.21 3.834 3.705 2.193.495 5.758-.319 7.531-.732 1.774-.413 1.725-.436 1.635-.476a1.658 1.658 0 0 1-.358-.2c-.103-.087-.156-.192-.182-.243-.025-.051-.025-.042-3.214-2.433z"/><path fill="none" stroke="#000" stroke-linecap="round" stroke-opacity=".098" stroke-width=".409" d="M91.762 89.266l-4.314 1.143m3.119-1.663l-3.535.468m5.406.676c-.66-.556-1.319-1.11-1.7-1.422-.38-.312-.485-.381-1.226-.432-.74-.052-2.17-.087-3.571-.121"/></svg>