<svg width="23mm" height="36.02mm" version="1.1" viewBox="0 0 22.999968 36.020298" xmlns="http://www.w3.org/2000/svg" xmlns:xlink="http://www.w3.org/1999/xlink"><defs><linearGradient id="a" x1="289.32" x2="372.41" y1="470.98" y2="470.98" gradientTransform="matrix(.27328 0 0 .26452 -6.1624 7.1801)" gradientUnits="userSpaceOnUse"><stop stop-color="#c30000" offset="0"/><stop stop-color="#00af00" offset="1"/></linearGradient></defs><g transform="translate(-72.725 -113.76)"><path d="m89.424 114.01c-1.708 0-3.2537 0.19012-4.6372 0.57038-1.3835 0.38025-2.5705 0.98369-3.5611 1.8103-0.97355 0.8101-1.7336 1.8599-2.2802 3.1495-0.52947 1.273-0.79421 2.8023-0.79421 4.5878v3.8191h-3.1523l-1.8985 4.7118h5.0508v16.863h6.3024v-16.863h4.793l1.8991-4.7118h-6.6921v-4.067c0-0.9093 0.1281-1.6781 0.38429-2.3063 0.27328-0.64477 0.64049-1.1738 1.1016-1.5871 0.46115-0.41332 1.0077-0.71091 1.6396-0.89277 0.63195-0.1984 1.3151-0.29759 2.0496-0.29759 1.076 0 2.1264 0.0827 3.1512 0.248 1.0419 0.14879 1.9386 0.33892 2.6901 0.57037v-4.8854c-0.87107-0.19839-1.819-0.36371-2.8438-0.49598-1.0077-0.14879-2.0752-0.22319-3.2024-0.22319z" fill="none" stroke="url(#a)" stroke-width=".50809"/></g></svg>
