<svg width="81.985mm" height="40.406mm" version="1.1" viewBox="0 0 81.984528 40.405827" xmlns="http://www.w3.org/2000/svg" xmlns:xlink="http://www.w3.org/1999/xlink"><defs><linearGradient id="b" x1="226.77" x2="434.65" y1="473.37" y2="473.37" gradientTransform="matrix(.72686 0 0 .81875 -110.55 46.7)" gradientUnits="userSpaceOnUse"><stop stop-color="#b90900" stop-opacity=".95686" offset="0"/><stop stop-color="#00af00" offset="1"/></linearGradient><linearGradient id="a" x1="46.032" x2="81.417" y1="131.37" y2="131.37" gradientTransform="translate(-3.7042 -1.5875)" gradientUnits="userSpaceOnUse"><stop stop-color="#b80a00" offset="0"/><stop stop-color="#02ac00" stop-opacity=".81176" offset="1"/></linearGradient></defs><g transform="translate(-14.148 -94.698)"><path transform="scale(.26458)" d="m129.83 359.43a74.846 74.857 0 0 0 -74.846 74.857 74.846 74.857 0 0 0 58.162 72.9v-49.182h-13.875l5.2148-14.58h8.6602v-11.82c0-5.5252 0.72709-10.256 2.1816-14.195 1.5015-3.9905 3.5892-7.2392 6.2637-9.7461 2.7214-2.558 5.9826-4.4249 9.7832-5.6016 3.8006-1.1767 8.0481-1.7656 12.74-1.7656 3.0968 0 6.0285 0.23076 8.7969 0.69141 2.8153 0.40928 5.4195 0.92124 7.8125 1.5352v15.115c-2.0645-0.71622-4.5284-1.3033-7.3906-1.7637-2.8153-0.51156-5.7002-0.76757-8.6562-0.76757-2.0176 0-3.8948 0.30766-5.6309 0.92187-1.7361 0.56273-3.237 1.4827-4.5039 2.7617-1.2669 1.279-2.2746 2.9169-3.0254 4.9121-0.70382 1.9441-1.0566 4.3229-1.0566 7.1367v12.586h18.385l-5.2168 14.58h-13.168v51.115a74.846 74.857 0 0 0 32.258 -7.7148v-36.643c0-4.736 2.6865-7.1035 8.0625-7.1035v5.8555c-1.024 1.088-1.7273 2.0489-2.1113 2.8809l0.38476 0.38281c4.096-6.08 9.2154-9.1191 15.359-9.1191 2.304 0 4.0633 0.57456 5.2793 1.7266 1.216 1.088 1.8242 2.4332 1.8242 4.0332 0 1.152-0.28728 2.1763-0.86328 3.0723-1.792-0.96-4.1595-1.4414-7.1035-1.4414-3.584 0-6.5617 1.0896-8.9297 3.2656-2.368 2.112-3.5508 4.7034-3.5508 7.7754v20.561a74.846 74.857 0 0 0 33.605 -62.365 74.846 74.857 0 0 0 -74.846 -74.857z" fill="none" stroke="url(#b)" stroke-linecap="square" stroke-linejoin="bevel" stroke-width="3.0236" style="paint-order:stroke markers fill"/><text x="42.333332" y="132.95833" fill="#000000" font-family="K2D" font-size="16.933px" letter-spacing="0px" stroke-width=".26458" word-spacing="0px" style="line-height:1.25" xml:space="preserve"><tspan x="42.333332" y="148.72586" stroke-width=".26458"/></text><text x="41.274998" y="134.01669" fill="none" font-family="K2D" font-size="25.4px" letter-spacing="0px" stroke="url(#a)" stroke-opacity=".81176" stroke-width=".8" word-spacing="0px" style="line-height:1.25" xml:space="preserve"><tspan x="41.274998" y="134.01669" fill="none" font-size="25.4px" stroke="url(#a)" stroke-opacity=".81176" stroke-width=".8">rame</tspan></text></g></svg>
