<?xml version="1.0" encoding="UTF-8" standalone="no"?>
<!-- Created with Inkscape (http://www.inkscape.org/) -->

<svg
   xmlns:dc="http://purl.org/dc/elements/1.1/"
   xmlns:cc="http://creativecommons.org/ns#"
   xmlns:rdf="http://www.w3.org/1999/02/22-rdf-syntax-ns#"
   xmlns:svg="http://www.w3.org/2000/svg"
   xmlns="http://www.w3.org/2000/svg"
   xmlns:xlink="http://www.w3.org/1999/xlink"
   xmlns:sodipodi="http://sodipodi.sourceforge.net/DTD/sodipodi-0.dtd"
   xmlns:inkscape="http://www.inkscape.org/namespaces/inkscape"
   width="40.405895mm"
   height="40.40588mm"
   viewBox="0 0 40.405895 40.40588"
   version="1.1"
   id="svg4627"
   inkscape:version="0.92.1 r15371"
   sodipodi:docname="frame.svg"
   inkscape:export-filename="C:\Users\Adepitan\MyPrograms\WebAidBox\Frame\frameX64.png"
   inkscape:export-xdpi="40.231754"
   inkscape:export-ydpi="40.231754">
  <defs
     id="defs4621">
    <linearGradient
       inkscape:collect="always"
       xlink:href="#linearGradient4528"
       id="linearGradient4530-9"
       x1="226.7709"
       y1="473.37207"
       x2="434.64511"
       y2="473.37207"
       gradientUnits="userSpaceOnUse"
       gradientTransform="matrix(0.1923145,0,0,0.21662684,3.586892,9.9322034)" />
    <linearGradient
       inkscape:collect="always"
       id="linearGradient4528">
      <stop
         style="stop-color:#b90900;stop-opacity:0.95686275"
         offset="0"
         id="stop4524" />
      <stop
         style="stop-color:#00af00;stop-opacity:1"
         offset="1"
         id="stop4526" />
    </linearGradient>
  </defs>
  <sodipodi:namedview
     id="base"
     pagecolor="#ffffff"
     bordercolor="#666666"
     borderopacity="1.0"
     inkscape:pageopacity="0.0"
     inkscape:pageshadow="2"
     inkscape:zoom="0.82304687"
     inkscape:cx="16.480999"
     inkscape:cy="-61.051077"
     inkscape:document-units="mm"
     inkscape:current-layer="layer1"
     showgrid="false"
     fit-margin-top="0"
     fit-margin-left="0"
     fit-margin-right="0"
     fit-margin-bottom="0"
     inkscape:window-width="1366"
     inkscape:window-height="705"
     inkscape:window-x="-8"
     inkscape:window-y="-8"
     inkscape:window-maximized="1" />
  <metadata
     id="metadata4624">
    <rdf:RDF>
      <cc:Work
         rdf:about="">
        <dc:format>image/svg+xml</dc:format>
        <dc:type
           rdf:resource="http://purl.org/dc/dcmitype/StillImage" />
        <dc:title></dc:title>
      </cc:Work>
    </rdf:RDF>
  </metadata>
  <g
     inkscape:label="Layer 1"
     inkscape:groupmode="layer"
     id="layer1"
     transform="translate(-46.983889,-92.274356)">
    <path
       style="opacity:1;fill:none;fill-opacity:1;fill-rule:nonzero;stroke:url(#linearGradient4530-9);stroke-width:0.80000001;stroke-linecap:square;stroke-linejoin:bevel;stroke-miterlimit:4;stroke-dasharray:none;stroke-dashoffset:0;stroke-opacity:1;paint-order:stroke markers fill"
       d="m 67.187026,92.674356 a 19.802928,19.805999 0 0 0 -19.803137,19.806124 19.802928,19.805999 0 0 0 15.388916,19.28824 v -13.01284 h -3.671253 l 1.380007,-3.85781 h 2.291246 v -3.12713 c 0,-1.46189 0.192469,-2.71401 0.577321,-3.75628 0.39726,-1.05582 0.94958,-1.91509 1.65721,-2.57836 0.72004,-0.67681 1.58278,-1.17079 2.58836,-1.48212 1.00558,-0.31134 2.1293,-0.4671 3.37076,-0.4671 0.81936,0 1.59522,0.0609 2.32768,0.18278 0.74487,0.10829 1.43386,0.24374 2.06701,0.40617 v 3.99956 c -0.54624,-0.1895 -1.19816,-0.34486 -1.95545,-0.46667 -0.74487,-0.13535 -1.50838,-0.20309 -2.2905,-0.20309 -0.53382,0 -1.03035,0.0812 -1.48968,0.24371 -0.45934,0.14889 -0.85663,0.39228 -1.19183,0.73068 -0.33519,0.33841 -0.6018,0.77186 -0.80043,1.29976 -0.18622,0.51437 -0.27946,1.14381 -0.27946,1.8883 v 3.32979 h 4.86421 l -1.38039,3.85781 h -3.48382 v 13.52437 a 19.802928,19.805999 0 0 0 19.63599,-19.79977 19.802928,19.805999 0 0 0 -19.80276,-19.806124 z"
       id="path4518-2"
       inkscape:connector-curvature="0"
       inkscape:export-xdpi="80.463531"
       inkscape:export-ydpi="80.463531" />
  </g>
</svg>
