<svg width="40.406mm" height="40.406mm" version="1.1" viewBox="0 0 40.405895 40.40588" xmlns="http://www.w3.org/2000/svg" xmlns:xlink="http://www.w3.org/1999/xlink"><defs><linearGradient id="a" x1="226.77" x2="434.65" y1="473.37" y2="473.37" gradientTransform="matrix(.19231 0 0 .21663 3.5869 9.9322)" gradientUnits="userSpaceOnUse"><stop stop-color="#b90900" stop-opacity=".95686" offset="0"/><stop stop-color="#00af00" offset="1"/></linearGradient></defs><g transform="translate(-46.984 -92.274)"><circle cx="67.187" cy="112.48" r="20.052" fill="#fff" style="paint-order:stroke markers fill"/><path d="m67.187 92.674a19.803 19.806 0 0 0 -19.803 19.806 19.803 19.806 0 0 0 15.389 19.288v-13.013h-3.6713l1.38-3.8578h2.2912v-3.1271c0-1.4619 0.19247-2.714 0.57732-3.7563 0.39726-1.0558 0.94958-1.9151 1.6572-2.5784 0.72004-0.67681 1.5828-1.1708 2.5884-1.4821 1.0056-0.31134 2.1293-0.4671 3.3708-0.4671 0.81936 0 1.5952 0.0609 2.3277 0.18278 0.74487 0.10829 1.4339 0.24374 2.067 0.40617v3.9996c-0.54624-0.1895-1.1982-0.34486-1.9554-0.46667-0.74487-0.13535-1.5084-0.20309-2.2905-0.20309-0.53382 0-1.0304 0.0812-1.4897 0.24371-0.45934 0.14889-0.85663 0.39228-1.1918 0.73068-0.33519 0.33841-0.6018 0.77186-0.80043 1.2998-0.18622 0.51437-0.27946 1.1438-0.27946 1.8883v3.3298h4.8642l-1.3804 3.8578h-3.4838v13.524a19.803 19.806 0 0 0 19.636 -19.8 19.803 19.806 0 0 0 -19.803 -19.806z" fill="none" stroke="url(#a)" stroke-linecap="square" stroke-linejoin="bevel" stroke-width="1.2" style="paint-order:stroke markers fill"/></g></svg>
